<mxfile host="app.diagrams.net" modified="2023-12-13T16:16:15.533Z" agent="Mozilla/5.0 (Windows NT 10.0; Win64; x64) AppleWebKit/537.36 (KHTML, like Gecko) Chrome/120.0.0.0 Safari/537.36 Edg/120.0.0.0" etag="Ky8WPgwRZhP8UI1G5fcQ" version="22.1.7" type="github">
  <diagram name="Page-1" id="f1b7ffb7-ca1e-a977-7cf5-a751b3c06c05">
    <mxGraphModel dx="2129" dy="5351" grid="1" gridSize="4" guides="1" tooltips="1" connect="1" arrows="1" fold="1" page="1" pageScale="1" pageWidth="1500" pageHeight="4069" background="#050505" math="0" shadow="0">
      <root>
        <mxCell id="0" />
        <mxCell id="1" parent="0" />
        <mxCell id="UndGTYys5fh_0Qe0Yp4m-62" value="&lt;h1&gt;Pet Dex&lt;/h1&gt;&lt;p&gt;roadmap&lt;/p&gt;" style="text;html=1;strokeColor=none;fillColor=none;spacing=5;spacingTop=-20;whiteSpace=wrap;overflow=hidden;rounded=0;fontSize=20;fontFamily=Times New Roman;fontColor=#FFFFFF;align=center;fontStyle=2" vertex="1" parent="1">
          <mxGeometry x="604" y="-4059" width="190" height="120" as="geometry" />
        </mxCell>
        <mxCell id="UndGTYys5fh_0Qe0Yp4m-68" style="edgeStyle=orthogonalEdgeStyle;rounded=0;hachureGap=4;orthogonalLoop=1;jettySize=auto;html=1;fontFamily=Architects Daughter;fontSource=https%3A%2F%2Ffonts.googleapis.com%2Fcss%3Ffamily%3DArchitects%2BDaughter;fontSize=16;strokeWidth=5;strokeColor=#FFFFFF;" edge="1" parent="1" source="UndGTYys5fh_0Qe0Yp4m-63" target="UndGTYys5fh_0Qe0Yp4m-65">
          <mxGeometry relative="1" as="geometry" />
        </mxCell>
        <mxCell id="UndGTYys5fh_0Qe0Yp4m-79" style="edgeStyle=orthogonalEdgeStyle;rounded=0;hachureGap=4;orthogonalLoop=1;jettySize=auto;html=1;fontFamily=Architects Daughter;fontSource=https%3A%2F%2Ffonts.googleapis.com%2Fcss%3Ffamily%3DArchitects%2BDaughter;fontSize=16;strokeColor=#FFFFFF;strokeWidth=5;" edge="1" parent="1" source="UndGTYys5fh_0Qe0Yp4m-63" target="UndGTYys5fh_0Qe0Yp4m-78">
          <mxGeometry relative="1" as="geometry" />
        </mxCell>
        <mxCell id="UndGTYys5fh_0Qe0Yp4m-63" value="&lt;h1&gt;Internet&lt;/h1&gt;&lt;div style=&quot;text-align: left;&quot;&gt;How it works&lt;/div&gt;" style="text;html=1;strokeColor=none;fillColor=none;spacing=5;spacingTop=-20;overflow=hidden;rounded=0;fontSize=20;fontFamily=Times New Roman;fontColor=#F2F2F2;fontStyle=0;align=center;" vertex="1" parent="1">
          <mxGeometry x="617" y="-3889" width="190" height="120" as="geometry" />
        </mxCell>
        <mxCell id="UndGTYys5fh_0Qe0Yp4m-70" style="edgeStyle=orthogonalEdgeStyle;rounded=0;sketch=1;hachureGap=4;jiggle=2;curveFitting=1;orthogonalLoop=1;jettySize=auto;html=1;entryX=1;entryY=0.5;entryDx=0;entryDy=0;fontFamily=Architects Daughter;fontSource=https%3A%2F%2Ffonts.googleapis.com%2Fcss%3Ffamily%3DArchitects%2BDaughter;fontSize=16;strokeWidth=5;strokeColor=#FFFFFF;" edge="1" parent="1">
          <mxGeometry relative="1" as="geometry">
            <mxPoint x="1293" y="-3840" as="sourcePoint" />
            <mxPoint x="1293" y="-3750" as="targetPoint" />
            <Array as="points">
              <mxPoint x="1352" y="-3840" />
              <mxPoint x="1352" y="-3750" />
            </Array>
          </mxGeometry>
        </mxCell>
        <UserObject label="HTTPS E PARA o que Raios serve?" tooltip="shbvadhbiawsdehfdfhjnsljkfjasdl" id="UndGTYys5fh_0Qe0Yp4m-65">
          <mxCell style="html=1;whiteSpace=wrap;hachureGap=4;fontFamily=Architects Daughter;fontSource=https%3A%2F%2Ffonts.googleapis.com%2Fcss%3Ffamily%3DArchitects%2BDaughter;fontSize=20;rounded=1;" vertex="1" parent="1">
            <mxGeometry x="1091" y="-3867" width="202" height="76" as="geometry" />
          </mxCell>
        </UserObject>
        <UserObject label="DNS &amp;amp; Servidores" tooltip="shbvadhbiawsdehfdfhjnsljkfjasdl" id="UndGTYys5fh_0Qe0Yp4m-69">
          <mxCell style="html=1;whiteSpace=wrap;hachureGap=4;fontFamily=Times New Roman;fontSize=20;rounded=1;" vertex="1" parent="1">
            <mxGeometry x="1091" y="-3784" width="202" height="76" as="geometry" />
          </mxCell>
        </UserObject>
        <UserObject label="&lt;h3&gt;&lt;a href=&quot;https://www.drawio.com/doc/faq/custom-links&quot;&gt;Para que funciona os browsers?&lt;/a&gt;&lt;/h3&gt;" tooltip="shbvadhbiawsdehfdfhjnsljkfjasdl" id="UndGTYys5fh_0Qe0Yp4m-71">
          <mxCell style="html=1;whiteSpace=wrap;hachureGap=4;fontFamily=Architects Daughter;fontSource=https%3A%2F%2Ffonts.googleapis.com%2Fcss%3Ffamily%3DArchitects%2BDaughter;fontSize=20;rounded=1;" vertex="1" parent="1">
            <mxGeometry x="1091" y="-3700" width="202" height="76" as="geometry" />
          </mxCell>
        </UserObject>
        <mxCell id="UndGTYys5fh_0Qe0Yp4m-72" style="edgeStyle=orthogonalEdgeStyle;rounded=0;sketch=1;hachureGap=4;jiggle=2;curveFitting=1;orthogonalLoop=1;jettySize=auto;html=1;entryX=1;entryY=0.5;entryDx=0;entryDy=0;fontFamily=Architects Daughter;fontSource=https%3A%2F%2Ffonts.googleapis.com%2Fcss%3Ffamily%3DArchitects%2BDaughter;fontSize=16;strokeWidth=5;strokeColor=#FFFFFF;" edge="1" parent="1">
          <mxGeometry relative="1" as="geometry">
            <mxPoint x="1293" y="-3744" as="sourcePoint" />
            <mxPoint x="1293" y="-3654" as="targetPoint" />
            <Array as="points">
              <mxPoint x="1293" y="-3728" />
              <mxPoint x="1352" y="-3728" />
              <mxPoint x="1352" y="-3654" />
            </Array>
          </mxGeometry>
        </mxCell>
        <mxCell id="UndGTYys5fh_0Qe0Yp4m-73" style="edgeStyle=orthogonalEdgeStyle;rounded=0;sketch=1;hachureGap=4;jiggle=2;curveFitting=1;orthogonalLoop=1;jettySize=auto;html=1;entryX=1;entryY=0.5;entryDx=0;entryDy=0;fontFamily=Architects Daughter;fontSource=https%3A%2F%2Ffonts.googleapis.com%2Fcss%3Ffamily%3DArchitects%2BDaughter;fontSize=16;strokeWidth=5;strokeColor=#FFFFFF;" edge="1" parent="1">
          <mxGeometry relative="1" as="geometry">
            <mxPoint x="1293" y="-3651" as="sourcePoint" />
            <mxPoint x="1293" y="-3561" as="targetPoint" />
            <Array as="points">
              <mxPoint x="1293" y="-3635" />
              <mxPoint x="1352" y="-3635" />
              <mxPoint x="1352" y="-3561" />
            </Array>
          </mxGeometry>
        </mxCell>
        <UserObject label="Para que funciona os browsers?" tooltip="shbvadhbiawsdehfdfhjnsljkfjasdl" id="UndGTYys5fh_0Qe0Yp4m-74">
          <mxCell style="html=1;whiteSpace=wrap;hachureGap=4;fontFamily=Architects Daughter;fontSource=https%3A%2F%2Ffonts.googleapis.com%2Fcss%3Ffamily%3DArchitects%2BDaughter;fontSize=20;rounded=1;" vertex="1" parent="1">
            <mxGeometry x="1091" y="-3613" width="202" height="76" as="geometry" />
          </mxCell>
        </UserObject>
        <mxCell id="UndGTYys5fh_0Qe0Yp4m-78" value="&lt;h1&gt;Package Managers&lt;/h1&gt;&lt;div style=&quot;text-align: left;&quot;&gt;Agora vamo para as drogas mais pesadas&lt;/div&gt;" style="text;html=1;strokeColor=none;fillColor=none;spacing=5;spacingTop=-20;overflow=hidden;rounded=0;fontSize=20;fontFamily=Times New Roman;fontColor=#F2F2F2;fontStyle=0;align=center;" vertex="1" parent="1">
          <mxGeometry x="245" y="-3761" width="344" height="120" as="geometry" />
        </mxCell>
      </root>
    </mxGraphModel>
  </diagram>
</mxfile>
